{"title":"Antichrist.2009.DVDRIP.XviD-ZEKTORM","uid":5086923,"size":734961989,"categoryP":"video","categoryS":"movies","magnet":"?xt=urn:btih:24d8cd3e87475154896522cc8a14db4418f5e1af&amp;dn=Antichrist.2009.DVDRIP.XviD-ZEKTORM&amp;tr=udp%3A%2F%2Ftracker.openbittorrent.com%3A80&amp;tr=udp%3A%2F%2Fopen.demonii.com%3A1337&amp;tr=udp%3A%2F%2Ftracker.coppersurfer.tk%3A6969&amp;tr=udp%3A%2F%2Fexodus.desync.com%3A6969","seeders":52,"leechers":2,"uploader":"blowley","files":3,"time":1252789607,"description":"Title                            : Antichrist\nYear                             : 2009\nGenre                            : Drama | Horror\niMDB URL                         : http://www.imdb.com/title/tt0870984/\nAwards                           : 1 win &amp; 1 nomination\n\nComplete name                    : Antichrist.2009.DVDRIP.XviD-ZEKTORM.avi\nFormat                           : AVI\nFile size                        : 701 MiB\nDuration                         : 1h 44mn\nOverall bit rate                 : 942 Kbps\nSource                           : DVD PAL\n\nVideo\nFormat                           : MPEG-4 Visual\nFormat profile                   : Streaming Video@L1\nCodec ID                         : XVID\nCodec ID/Hint                    : XviD\nDuration                         : 1h 44mn\nBit rate                         : 824 Kbps\nWidth                            : 720 pixels\nHeight                           : 304 pixels\nDisplay aspect ratio             : 2.35\nFrame rate                       : 25.000 fps\nResolution                       : 24 bits\nColorimetry                      : 4:2:0\nScan type                        : Progressive\nBits/(Pixel*Frame)               : 0.151\nStream size                      : 613 MiB (87%)\nWriting library                  : XviD\n\nAudio\nFormat                           : MPEG Audio\nFormat version                   : Version 1\nFormat profile                   : Layer 3\nCodec ID                         : 55\nCodec ID/Hint                    : MP3\nDuration                         : 1h 44mn\nBit rate mode                    : Variable\nBit rate                         : 105 Kbps\nMinimum bit rate                 : 128 Kbps\nChannel(s)                       : 2 channels\nSampling rate                    : 48.0 KHz\nResolution                       : 16 bits\nStream size                      : 78.1 MiB (11%)\nWriting library                  : LAME3.98r\nEncoding settings                : ABR\n","torrent":{"xt":"urn:btih:24d8cd3e87475154896522cc8a14db4418f5e1af","amp;dn":"Antichrist.2009.DVDRIP.XviD-ZEKTORM","amp;tr":["udp%3A%2F%2Ftracker.openbittorrent.com%3A80","udp%3A%2F%2Fopen.demonii.com%3A1337","udp%3A%2F%2Ftracker.coppersurfer.tk%3A6969","udp%3A%2F%2Fexodus.desync.com%3A6969"],"infoHash":"24d8cd3e87475154896522cc8a14db4418f5e1af","infoHashBuffer":{"type":"Buffer","data":[36,216,205,62,135,71,81,84,137,101,34,204,138,20,219,68,24,245,225,175]},"announce":[],"urlList":[]}}